<svg width="80" height="80" viewBox="0 0 80 80" fill="none" xmlns="http://www.w3.org/2000/svg">
<rect width="80" height="80" rx="8" fill="white"/>
<path d="M45.5928 50.3422H34.1338L39.8633 40.1927L45.5928 50.3422Z" fill="url(#paint0_linear_107_2)" stroke="url(#paint1_linear_107_2)"/>
<line y1="-0.5" x2="56.9876" y2="-0.5" transform="matrix(0.505961 0.862556 -0.870454 0.492249 33.2095 10.5532)" stroke="url(#paint2_linear_107_2)"/>
<line y1="-0.5" x2="59.1384" y2="-0.5" transform="matrix(1 -0.000512462 0.000442223 1 16.8457 59.7386)" stroke="url(#paint3_linear_107_2)"/>
<line y1="-0.5" x2="56.8888" y2="-0.5" transform="matrix(-0.50497 0.863137 -0.827709 -0.561157 39.4399 21.1831)" stroke="url(#paint4_linear_107_2)"/>
<mask id="path-6-inside-1_107_2" fill="white">
<path d="M55.0947 71.2432L25.1445 58.9014H67.9795L55.0947 71.2432ZM23.0059 58.0195L23 58.0176L23.0059 58V58.0195Z"/>
</mask>
<path d="M55.0947 71.2432L25.1445 58.9014H67.9795L55.0947 71.2432ZM23.0059 58.0195L23 58.0176L23.0059 58V58.0195Z" fill="url(#paint5_linear_107_2)"/>
<path d="M55.0947 71.2432L54.7137 72.1677L55.316 72.4159L55.7865 71.9653L55.0947 71.2432ZM25.1445 58.9014V57.9014L24.7635 59.8259L25.1445 58.9014ZM67.9795 58.9014L68.6712 59.6235L70.4691 57.9014H67.9795V58.9014ZM23.0059 58.0195L22.6896 58.9682L24.0059 59.407V58.0195H23.0059ZM23 58.0176L22.0513 57.7014L21.7351 58.65L22.6838 58.9663L23 58.0176ZM23.0059 58H24.0059L22.0572 57.6838L23.0059 58ZM55.0947 71.2432L55.4757 70.3186L25.5255 57.9768L25.1445 58.9014L24.7635 59.8259L54.7137 72.1677L55.0947 71.2432ZM25.1445 58.9014V59.9014H67.9795V58.9014V57.9014H25.1445V58.9014ZM67.9795 58.9014L67.2878 58.1792L54.403 70.521L55.0947 71.2432L55.7865 71.9653L68.6712 59.6235L67.9795 58.9014ZM23.0059 58.0195L23.3221 57.0708L23.3162 57.0689L23 58.0176L22.6838 58.9663L22.6896 58.9682L23.0059 58.0195ZM23 58.0176L23.9487 58.3338L23.9545 58.3162L23.0059 58L22.0572 57.6838L22.0513 57.7014L23 58.0176ZM23.0059 58H22.0059V58.0195H23.0059H24.0059V58H23.0059Z" fill="url(#paint6_linear_107_2)" mask="url(#path-6-inside-1_107_2)"/>
<mask id="path-8-inside-2_107_2" fill="white">
<path d="M52.5438 20.2869L58.8906 54.1265L35.9633 15.1772L52.5438 20.2869ZM59.3432 56.5435L59.3451 56.5505L59.3271 56.5545L59.3432 56.5435Z"/>
</mask>
<path d="M52.5438 20.2869L58.8906 54.1265L35.9633 15.1772L52.5438 20.2869ZM59.3432 56.5435L59.3451 56.5505L59.3271 56.5545L59.3432 56.5435Z" fill="url(#paint7_linear_107_2)"/>
<path d="M52.5438 20.2869L53.4947 20.0583L53.3835 19.4655L52.8381 19.2974L52.5438 20.2869ZM58.8906 54.1265L58.0645 54.69L59.8415 53.8978L58.8906 54.1265ZM35.9633 15.1772L36.2576 14.1877L33.7721 13.4217L35.1372 15.7407L35.9633 15.1772ZM59.3432 56.5435L60.2769 56.2384L59.9311 54.9347L58.836 55.6817L59.3432 56.5435ZM59.3451 56.5505L59.5185 57.5579L60.5649 57.3244L60.2788 56.2454L59.3451 56.5505ZM59.3271 56.5545L58.8198 55.6928L59.5005 57.562L59.3271 56.5545ZM52.5438 20.2869L51.5928 20.5156L57.9396 54.3551L58.8906 54.1265L59.8415 53.8978L53.4947 20.0583L52.5438 20.2869ZM58.8906 54.1265L59.7167 53.5629L36.7894 14.6137L35.9633 15.1772L35.1372 15.7407L58.0645 54.69L58.8906 54.1265ZM35.9633 15.1772L35.6689 16.1668L52.2494 21.2765L52.5438 20.2869L52.8381 19.2974L36.2576 14.1877L35.9633 15.1772ZM59.3432 56.5435L58.4096 56.8486L58.4114 56.8556L59.3451 56.5505L60.2788 56.2454L60.2769 56.2384L59.3432 56.5435ZM59.3451 56.5505L59.1717 55.5431L59.1537 55.5471L59.3271 56.5545L59.5005 57.562L59.5185 57.5579L59.3451 56.5505ZM59.3271 56.5545L59.8344 57.4163L59.8505 57.4053L59.3432 56.5435L58.836 55.6817L58.8198 55.6928L59.3271 56.5545Z" fill="url(#paint8_linear_107_2)" mask="url(#path-8-inside-2_107_2)"/>
<mask id="path-10-inside-3_107_2" fill="white">
<path d="M11.5134 44.8295L37.6533 24.3141L14.7641 63.4748L11.5134 44.8295Z"/>
</mask>
<path d="M11.5134 44.8295L37.6533 24.3141L14.7641 63.4748L11.5134 44.8295Z" fill="url(#paint9_linear_107_2)"/>
<path d="M11.5134 44.8295L10.9228 43.9954L10.4515 44.3653L10.5602 44.9886L11.5134 44.8295ZM37.6533 24.3141L38.4813 24.8749L37.0626 23.4801L37.6533 24.3141ZM14.7641 63.4748L13.8108 63.6339L14.274 66.2906L15.592 64.0356L14.7641 63.4748ZM11.5134 44.8295L12.1041 45.6636L38.244 25.1482L37.6533 24.3141L37.0626 23.4801L10.9228 43.9954L11.5134 44.8295ZM37.6533 24.3141L36.8254 23.7533L13.9361 62.914L14.7641 63.4748L15.592 64.0356L38.4813 24.8749L37.6533 24.3141ZM14.7641 63.4748L15.7173 63.3156L12.4667 44.6703L11.5134 44.8295L10.5602 44.9886L13.8108 63.6339L14.7641 63.4748Z" fill="url(#paint10_linear_107_2)" mask="url(#path-10-inside-3_107_2)"/>
<defs>
<linearGradient id="paint0_linear_107_2" x1="39.8632" y1="39.1752" x2="39.8632" y2="54.7306" gradientUnits="userSpaceOnUse">
<stop offset="1" stop-color="#3D5AFE"/>
</linearGradient>
<linearGradient id="paint1_linear_107_2" x1="39.8632" y1="39.1752" x2="39.8632" y2="54.7306" gradientUnits="userSpaceOnUse">
<stop stop-color="#0024A8"/>
<stop offset="1" stop-color="#005EFF"/>
</linearGradient>
<linearGradient id="paint2_linear_107_2" x1="28.4938" y1="0" x2="28.4938" y2="1" gradientUnits="userSpaceOnUse">
<stop stop-color="#9500EB"/>
</linearGradient>
<linearGradient id="paint3_linear_107_2" x1="29.5692" y1="0" x2="29.5692" y2="1" gradientUnits="userSpaceOnUse">
<stop stop-color="#9500EB"/>
</linearGradient>
<linearGradient id="paint4_linear_107_2" x1="28.4444" y1="0" x2="28.4444" y2="1" gradientUnits="userSpaceOnUse">
<stop stop-color="#9500EB"/>
</linearGradient>
<linearGradient id="paint5_linear_107_2" x1="45.4897" y1="58" x2="45.4897" y2="71.2432" gradientUnits="userSpaceOnUse">
<stop offset="1" stop-color="#9C00EF"/>
</linearGradient>
<linearGradient id="paint6_linear_107_2" x1="45.4897" y1="58" x2="45.4897" y2="71.2432" gradientUnits="userSpaceOnUse">
<stop stop-color="#9500EB"/>
</linearGradient>
<linearGradient id="paint7_linear_107_2" x1="47.2928" y1="36.1104" x2="58.11" y2="29.7429" gradientUnits="userSpaceOnUse">
<stop offset="1" stop-color="#9C00EF"/>
</linearGradient>
<linearGradient id="paint8_linear_107_2" x1="47.2928" y1="36.1104" x2="58.11" y2="29.7429" gradientUnits="userSpaceOnUse">
<stop stop-color="#9500EB"/>
</linearGradient>
<linearGradient id="paint9_linear_107_2" x1="26.2087" y1="43.8945" x2="15.6628" y2="37.7304" gradientUnits="userSpaceOnUse">
<stop offset="1" stop-color="#9C00EF"/>
</linearGradient>
<linearGradient id="paint10_linear_107_2" x1="26.2087" y1="43.8945" x2="15.6628" y2="37.7304" gradientUnits="userSpaceOnUse">
<stop stop-color="#9500EB"/>
</linearGradient>
</defs>
</svg>
